<?xml version="1.0" encoding="UTF-8"?>
<svg width="296px" height="69px" viewBox="0 0 296 69" version="1.1" xmlns="http://www.w3.org/2000/svg" xmlns:xlink="http://www.w3.org/1999/xlink">
    <!-- Generator: Sketch 52.6 (67491) - http://www.bohemiancoding.com/sketch -->
    <title>Logo Coloured</title>
    <desc>Created with Sketch.</desc>
    <defs>
        <linearGradient x1="50%" y1="0%" x2="50%" y2="100%" id="linearGradient-1">
            <stop stop-color="#A1B5B8" offset="0%"></stop>
            <stop stop-color="#687F82" offset="100%"></stop>
        </linearGradient>
        <path d="M3.1613396,5.32696961 L20.5036541,0.400601268 C21.3395346,0.163155708 22.2273729,0.181492925 23.0527365,0.453249457 L44.4698553,7.50498007 C46.2538947,8.09238708 47.459433,9.75852206 47.459433,11.6367776 L47.459433,19.2435462 C47.459433,21.6459848 45.5118717,23.5935461 43.1094331,23.5935461 C42.7912337,23.5935461 42.4739949,23.5586323 42.1634114,23.4894315 L22.8162918,19.1787179 C22.1394231,19.0279054 21.4363069,19.0411034 20.7655747,19.2172112 L5.45469531,23.237245 C3.13101688,23.8473514 0.752714345,22.4582268 0.142607926,20.1345484 C0.0479287997,19.7739493 4.56574655e-17,19.4026745 0,19.029853 L8.8817842e-16,9.51141532 C6.50027754e-16,7.56676756 1.2907021,5.85835481 3.1613396,5.32696961 Z" id="path-2"></path>
        <linearGradient x1="50%" y1="-105.805084%" x2="97.2572992%" y2="97.2572992%" id="linearGradient-4">
            <stop stop-color="#656D78" offset="0%"></stop>
            <stop stop-color="#040405" offset="100%"></stop>
        </linearGradient>
        <path d="M3.1613396,5.32696961 L20.7347994,0.334940659 C21.4250469,0.138864559 22.1530798,0.116584845 22.8540253,0.270086798 L46.6268801,5.4761687 C48.6234235,5.91339715 50.0463144,7.68161057 50.0463144,9.72546827 L50.0463144,16.5503881 C50.0463144,18.8526376 48.2524688,20.7562087 45.9542709,20.8927328 L22.0825234,22.3108305 C21.8852465,22.3225497 21.6874003,22.3208116 21.4903598,22.3056282 L4.01579273,20.9590905 C1.74970034,20.7844722 2.05469581e-15,18.8947583 1.77635684e-15,16.6219481 L0,9.51141532 C-1.10174775e-15,7.56676756 1.2907021,5.85835481 3.1613396,5.32696961 Z" id="path-5"></path>
        <linearGradient x1="3.76362418%" y1="3.76362418%" x2="97.2572992%" y2="97.2572992%" id="linearGradient-7">
            <stop stop-color="#656D78" offset="0%"></stop>
            <stop stop-color="#2F3640" offset="100%"></stop>
        </linearGradient>
        <linearGradient x1="50%" y1="0%" x2="50%" y2="100%" id="linearGradient-8">
            <stop stop-color="#62AC81" offset="0%"></stop>
            <stop stop-color="#33744A" offset="100%"></stop>
        </linearGradient>
        <path d="M4.80189631,0.549125826 L21.3697878,2.27963159 C21.6467984,2.30856518 21.9259476,2.31082778 22.2033908,2.28638824 L42.8872498,0.464379432 C45.2804214,0.25356869 47.3913661,2.02272169 47.6021768,4.41589325 C47.6133578,4.54282163 47.6189563,4.67017998 47.6189563,4.79759986 L47.6189563,9.44188792 C47.6189563,11.4977847 46.1796286,13.2729711 44.1681334,13.6979401 L22.7685855,18.2190269 C22.1222013,18.3555886 21.4532031,18.343127 20.8123531,18.1825876 L3.29294447,13.7937997 C1.35745571,13.3089403 2.01862103e-15,11.5694826 8.8817842e-16,9.5741868 L8.8817842e-16,4.87558961 C5.93964544e-16,2.473151 1.9475613,0.525589698 4.34999991,0.525589698 C4.50093837,0.525589698 4.65177453,0.533445701 4.80189631,0.549125826 Z" id="path-9"></path>
    </defs>
    <g id="Page-1" stroke="none" stroke-width="1" fill="none" fill-rule="evenodd">
        <g id="Artboard" transform="translate(-56.000000, -72.000000)">
            <g id="Logo-Coloured" transform="translate(55.000000, 72.000000)">
                <path d="M77.6008095,23.214401 L88.9624093,23.214401 C90.5464172,23.214401 92.0440022,23.3583996 93.4552092,23.646401 C94.8664162,23.9344025 96.0976039,24.4311975 97.1488091,25.136801 C98.2000144,25.8424045 99.035206,26.792795 99.6544091,27.9880009 C100.273612,29.1832069 100.583209,30.6879918 100.583209,32.5024009 C100.583209,34.2880097 100.295212,35.7855947 99.7192091,36.9952008 C99.1432062,38.2048068 98.3512142,39.1695971 97.3432091,39.8896007 C96.3352041,40.6096043 95.1400161,41.1207992 93.7576092,41.4232007 C92.3752023,41.7256022 90.8776173,41.8768007 89.2648093,41.8768007 L84.3400094,41.8768007 L84.3400094,53.8000004 L77.6008095,53.8000004 L77.6008095,23.214401 Z M84.3400094,36.1744008 L88.8328093,36.1744008 C89.4376123,36.1744008 90.0208065,36.1168014 90.5824093,36.0016008 C91.1440121,35.8864002 91.648007,35.6920022 92.0944092,35.4184008 C92.5408115,35.1447994 92.9008079,34.7704032 93.1744092,34.2952008 C93.4480106,33.8199985 93.5848092,33.2224044 93.5848092,32.5024009 C93.5848092,31.724797 93.404811,31.0984033 93.0448092,30.6232009 C92.6848074,30.1479985 92.224012,29.7808022 91.6624092,29.5216009 C91.1008065,29.2623996 90.4744127,29.0968013 89.7832093,29.0248009 C89.0920058,28.9528006 88.4296125,28.9168009 87.7960093,28.9168009 L84.3400094,28.9168009 L84.3400094,36.1744008 Z M124.468009,50.1712005 C123.431203,51.4960071 122.120817,52.5183969 120.536809,53.2384004 C118.952801,53.958404 117.311217,54.3184004 115.612009,54.3184004 C113.999201,54.3184004 112.480016,54.059203 111.054409,53.5408004 C109.628802,53.0223979 108.390414,52.2808053 107.339209,51.3160005 C106.288004,50.3511957 105.460012,49.1920073 104.855209,47.8384005 C104.250406,46.4847938 103.948009,44.972809 103.948009,43.3024006 C103.948009,41.6319923 104.250406,40.1200075 104.855209,38.7664007 C105.460012,37.412794 106.288004,36.2536056 107.339209,35.2888008 C108.390414,34.323996 109.628802,33.5824034 111.054409,33.0640008 C112.480016,32.5455983 113.999201,32.2864009 115.612009,32.2864009 C117.109616,32.2864009 118.470403,32.5455983 119.694409,33.0640008 C120.918415,33.5824034 121.955204,34.323996 122.804809,35.2888008 C123.654413,36.2536056 124.309606,37.412794 124.770409,38.7664007 C125.231211,40.1200075 125.461609,41.6319923 125.461609,43.3024006 L125.461609,45.3328006 L110.428009,45.3328006 C110.68721,46.5712068 111.248805,47.5575969 112.112809,48.2920005 C112.976813,49.0264042 114.042402,49.3936005 115.309609,49.3936005 C116.375214,49.3936005 117.275205,49.1560029 118.009609,48.6808005 C118.744012,48.2055982 119.384806,47.5936043 119.932009,46.8448006 L124.468009,50.1712005 Z M118.981609,40.9264007 C119.010409,39.8319952 118.650412,38.8960046 117.901609,38.1184007 C117.152805,37.3407969 116.188015,36.9520008 115.007209,36.9520008 C114.287205,36.9520008 113.653612,37.0671996 113.106409,37.2976008 C112.559206,37.5280019 112.091211,37.8231989 111.702409,38.1832007 C111.313607,38.5432025 111.01121,38.9607983 110.795209,39.4360007 C110.579208,39.9112031 110.456809,40.4079981 110.428009,40.9264007 L118.981609,40.9264007 Z M149.864808,50.1712005 C148.828003,51.4960071 147.517616,52.5183969 145.933608,53.2384004 C144.3496,53.958404 142.708017,54.3184004 141.008808,54.3184004 C139.396,54.3184004 137.876815,54.059203 136.451208,53.5408004 C135.025601,53.0223979 133.787214,52.2808053 132.736008,51.3160005 C131.684803,50.3511957 130.856811,49.1920073 130.252008,47.8384005 C129.647205,46.4847938 129.344809,44.972809 129.344809,43.3024006 C129.344809,41.6319923 129.647205,40.1200075 130.252008,38.7664007 C130.856811,37.412794 131.684803,36.2536056 132.736008,35.2888008 C133.787214,34.323996 135.025601,33.5824034 136.451208,33.0640008 C137.876815,32.5455983 139.396,32.2864009 141.008808,32.2864009 C142.506416,32.2864009 143.867202,32.5455983 145.091208,33.0640008 C146.315214,33.5824034 147.352004,34.323996 148.201608,35.2888008 C149.051212,36.2536056 149.706406,37.412794 150.167208,38.7664007 C150.62801,40.1200075 150.858408,41.6319923 150.858408,43.3024006 L150.858408,45.3328006 L135.824808,45.3328006 C136.08401,46.5712068 136.645604,47.5575969 137.509608,48.2920005 C138.373613,49.0264042 139.439202,49.3936005 140.706408,49.3936005 C141.772014,49.3936005 142.672005,49.1560029 143.406408,48.6808005 C144.140812,48.2055982 144.781605,47.5936043 145.328808,46.8448006 L149.864808,50.1712005 Z M144.378408,40.9264007 C144.407208,39.8319952 144.047212,38.8960046 143.298408,38.1184007 C142.549604,37.3407969 141.584814,36.9520008 140.404008,36.9520008 C139.684005,36.9520008 139.050411,37.0671996 138.503208,37.2976008 C137.956006,37.5280019 137.48801,37.8231989 137.099208,38.1832007 C136.710406,38.5432025 136.408009,38.9607983 136.192008,39.4360007 C135.976007,39.9112031 135.853609,40.4079981 135.824808,40.9264007 L144.378408,40.9264007 Z M155.389608,32.8048008 L161.869608,32.8048008 L161.869608,36.1744008 L161.956008,36.1744008 C162.647211,34.8783943 163.468003,33.9064041 164.418408,33.2584008 C165.368813,32.6103976 166.564001,32.2864009 168.004008,32.2864009 C168.37841,32.2864009 168.752806,32.3008007 169.127208,32.3296009 C169.50161,32.358401 169.847206,32.4160004 170.164008,32.5024009 L170.164008,38.4208007 C169.703205,38.2768 169.24961,38.1688011 168.803208,38.0968007 C168.356805,38.0248004 167.88881,37.9888007 167.399208,37.9888007 C166.160802,37.9888007 165.181611,38.161599 164.461608,38.5072007 C163.741604,38.8528025 163.18721,39.3351976 162.798408,39.9544007 C162.409606,40.5736038 162.157608,41.3151964 162.042408,42.1792007 C161.927207,43.043205 161.869608,43.9935954 161.869608,45.0304006 L161.869608,53.8000004 L155.389608,53.8000004 L155.389608,32.8048008 Z M173.658408,32.8048008 L180.138407,32.8048008 L180.138407,53.8000004 L173.658408,53.8000004 L173.658408,32.8048008 Z M173.140008,26.195201 C173.140008,25.1583958 173.507204,24.2728047 174.241608,23.538401 C174.976011,22.8039974 175.861602,22.4368011 176.898408,22.4368011 C177.935213,22.4368011 178.820804,22.8039974 179.555208,23.538401 C180.289611,24.2728047 180.656807,25.1583958 180.656807,26.195201 C180.656807,27.2320061 180.289611,28.1175973 179.555208,28.8520009 C178.820804,29.5864046 177.935213,29.9536009 176.898408,29.9536009 C175.861602,29.9536009 174.976011,29.5864046 174.241608,28.8520009 C173.507204,28.1175973 173.140008,27.2320061 173.140008,26.195201 Z M185.404007,32.8048008 L191.624807,32.8048008 L191.624807,35.6560008 L191.711207,35.6560008 C191.912808,35.2527988 192.200805,34.8496028 192.575207,34.4464008 C192.949609,34.0431988 193.396005,33.6832024 193.914407,33.3664008 C194.43281,33.0495993 195.023204,32.7904019 195.685607,32.5888009 C196.34801,32.3871998 197.068003,32.2864009 197.845607,32.2864009 C199.487215,32.2864009 200.812002,32.5383983 201.820007,33.0424008 C202.828012,33.5464034 203.612804,34.2447964 204.174407,35.1376008 C204.73601,36.0304052 205.117606,37.0815947 205.319207,38.2912007 C205.520808,39.5008068 205.621607,40.8111936 205.621607,42.2224007 L205.621607,53.8000004 L199.141607,53.8000004 L199.141607,43.5184006 C199.141607,42.9135976 199.120007,42.2872039 199.076807,41.6392007 C199.033607,40.9911974 198.904008,40.3936034 198.688007,39.8464007 C198.472006,39.299198 198.140809,38.8528025 197.694407,38.5072007 C197.248005,38.161599 196.607211,37.9888007 195.772007,37.9888007 C194.936803,37.9888007 194.26001,38.1399992 193.741607,38.4424007 C193.223205,38.7448022 192.827209,39.1479982 192.553607,39.6520007 C192.280006,40.1560032 192.100008,40.7247975 192.013607,41.3584007 C191.927207,41.9920038 191.884007,42.6543972 191.884007,43.3456006 L191.884007,53.8000004 L185.404007,53.8000004 L185.404007,32.8048008 Z M232.832806,52.0288005 C232.832806,56.0032203 231.832016,59.01999 229.830407,61.0792003 C227.828797,63.1384105 224.783227,64.1680002 220.693607,64.1680002 C218.821597,64.1680002 216.978416,63.9592023 215.164007,63.5416002 C213.349598,63.1239982 211.679214,62.3104063 210.152807,61.1008003 L213.738407,55.7440004 C214.746412,56.5792045 215.804801,57.2415979 216.913607,57.7312004 C218.022412,58.2208028 219.2392,58.4656003 220.564007,58.4656003 C222.551217,58.4656003 224.012802,57.9832052 224.948807,57.0184004 C225.884811,56.0535956 226.352807,54.8224079 226.352807,53.3248004 L226.352807,51.2944005 L226.266407,51.2944005 C225.517603,52.3024055 224.588812,53.0151984 223.480007,53.4328004 C222.371201,53.8504025 221.327212,54.0592004 220.348007,54.0592004 C218.792799,54.0592004 217.381613,53.7928031 216.114407,53.2600004 C214.8472,52.7271978 213.760011,51.9784053 212.852807,51.0136005 C211.945602,50.0487957 211.247209,48.9040072 210.757607,47.5792006 C210.268004,46.254394 210.023207,44.8000085 210.023207,43.2160006 C210.023207,41.8335938 210.246405,40.4800073 210.692807,39.1552007 C211.139209,37.8303941 211.772803,36.6640058 212.593607,35.6560008 C213.414411,34.6479958 214.415201,33.8344039 215.596007,33.2152008 C216.776813,32.5959978 218.115999,32.2864009 219.613607,32.2864009 C220.535211,32.2864009 221.377603,32.3871998 222.140807,32.5888009 C222.90401,32.7904019 223.588004,33.0495993 224.192807,33.3664008 C224.79761,33.6832024 225.316004,34.0359989 225.748007,34.4248008 C226.180009,34.8136028 226.525605,35.1951989 226.784807,35.5696008 L226.871207,35.5696008 L226.871207,32.8048008 L232.832806,32.8048008 L232.832806,52.0288005 Z M216.503207,43.1728006 C216.503207,43.8640041 216.632805,44.5191975 216.892007,45.1384006 C217.151208,45.7576037 217.518404,46.3047982 217.993607,46.7800006 C218.468809,47.2552029 219.016004,47.6367991 219.635207,47.9248005 C220.25441,48.212802 220.938403,48.3568005 221.687207,48.3568005 C222.40721,48.3568005 223.084003,48.212802 223.717607,47.9248005 C224.35121,47.6367991 224.905604,47.2552029 225.380807,46.7800006 C225.856009,46.3047982 226.223205,45.7576037 226.482407,45.1384006 C226.741608,44.5191975 226.871207,43.8640041 226.871207,43.1728006 C226.871207,42.4815972 226.741608,41.8264038 226.482407,41.2072007 C226.223205,40.5879976 225.856009,40.0408031 225.380807,39.5656007 C224.905604,39.0903983 224.35121,38.7088022 223.717607,38.4208007 C223.084003,38.1327993 222.40721,37.9888007 221.687207,37.9888007 C220.938403,37.9888007 220.25441,38.1327993 219.635207,38.4208007 C219.016004,38.7088022 218.468809,39.0903983 217.993607,39.5656007 C217.518404,40.0408031 217.151208,40.5879976 216.892007,41.2072007 C216.632805,41.8264038 216.503207,42.4815972 216.503207,43.1728006 Z M239.437606,23.214401 L249.546406,23.214401 C251.994418,23.214401 254.319995,23.4879983 256.523206,24.035201 C258.726417,24.5824037 260.648798,25.4679949 262.290406,26.692001 C263.932014,27.9160071 265.235201,29.5071911 266.200006,31.4656009 C267.164811,33.4240106 267.647206,35.7999868 267.647206,38.5936007 C267.647206,41.0704131 267.17921,43.2519912 266.243206,45.1384006 C265.307201,47.02481 264.047214,48.6087941 262.463206,49.8904005 C260.879198,51.1720069 259.050416,52.1439972 256.976806,52.8064004 C254.903196,53.4688037 252.728817,53.8000004 250.453606,53.8000004 L239.437606,53.8000004 L239.437606,23.214401 Z M246.176806,47.5792006 L249.676006,47.5792006 C251.231214,47.5792006 252.678399,47.4208021 254.017606,47.1040006 C255.356813,46.787199 256.516001,46.2616043 257.495206,45.5272006 C258.474411,44.7927969 259.244803,43.8280066 259.806406,42.6328007 C260.368009,41.4375947 260.648806,39.9760093 260.648806,38.2480007 C260.648806,36.7503933 260.368009,35.4472063 259.806406,34.3384008 C259.244803,33.2295953 258.488811,32.3152045 257.538406,31.5952009 C256.588001,30.8751973 255.472012,30.3352027 254.190406,29.9752009 C252.9088,29.6151991 251.562413,29.4352009 250.151206,29.4352009 L246.176806,29.4352009 L246.176806,47.5792006 Z M272.826406,23.214401 L284.231205,23.214401 C285.556012,23.214401 286.887999,23.3080001 288.227205,23.495201 C289.566412,23.682402 290.7688,24.0567982 291.834405,24.618401 C292.900011,25.1800038 293.764002,25.9647959 294.426405,26.972801 C295.088809,27.980806 295.420005,29.3199926 295.420005,30.9904009 C295.420005,32.7184095 294.93761,34.1511951 293.972805,35.2888008 C293.008,36.4264065 291.733613,37.2399983 290.149605,37.7296007 L290.149605,37.8160007 C291.15761,37.9600015 292.072001,38.2407987 292.892805,38.6584007 C293.713609,39.0760028 294.419202,39.6087975 295.009605,40.2568007 C295.600008,40.9048039 296.053604,41.6607964 296.370405,42.5248007 C296.687207,43.388805 296.845605,44.3103957 296.845605,45.2896006 C296.845605,46.9024086 296.500009,48.2487951 295.808805,49.3288005 C295.117602,50.4088059 294.224811,51.2799972 293.130405,51.9424005 C292.036,52.6048038 290.804812,53.079999 289.436805,53.3680004 C288.068799,53.6560019 286.708012,53.8000004 285.354405,53.8000004 L272.826406,53.8000004 L272.826406,23.214401 Z M279.565606,35.4400008 L284.447205,35.4400008 C284.965608,35.4400008 285.476803,35.3824014 285.980805,35.2672008 C286.484808,35.1520002 286.938403,34.9648021 287.341605,34.7056008 C287.744807,34.4463995 288.068804,34.100803 288.313605,33.6688008 C288.558407,33.2367987 288.680805,32.7184039 288.680805,32.1136009 C288.680805,31.4799977 288.544007,30.954403 288.270405,30.5368009 C287.996804,30.1191988 287.644008,29.7952021 287.212005,29.5648009 C286.780003,29.3343998 286.290408,29.1688014 285.743205,29.0680009 C285.196003,28.9672004 284.663208,28.9168009 284.144805,28.9168009 L279.565606,28.9168009 L279.565606,35.4400008 Z M279.565606,48.0976005 L285.613605,48.0976005 C286.132008,48.0976005 286.657603,48.0400011 287.190405,47.9248005 C287.723208,47.8096 288.205603,47.608002 288.637605,47.3200006 C289.069607,47.0319991 289.422404,46.6576029 289.696005,46.1968006 C289.969607,45.7359983 290.106405,45.1744039 290.106405,44.5120006 C290.106405,43.791997 289.926407,43.2088029 289.566405,42.7624006 C289.206404,42.3159984 288.752808,41.9776018 288.205605,41.7472007 C287.658403,41.5167995 287.068009,41.3584011 286.434405,41.2720007 C285.800802,41.1856002 285.210408,41.1424007 284.663205,41.1424007 L279.565606,41.1424007 L279.565606,48.0976005 Z" id="PeeringDB" fill="#00203E"></path>
                <g id="Group-2-Copy">
                    <g id="Group" transform="translate(8.058762, 0.000000)">
                        <mask id="mask-3" fill="white">
                            <use xlink:href="#path-2"></use>
                        </mask>
                        <use id="Rectangle-2" fill="url(#linearGradient-1)" xlink:href="#path-2"></use>
                        <rect id="Rectangle-3" fill="#4B6063" mask="url(#mask-3)" x="-5.63282325" y="0" width="27.6383861" height="27.5999995"></rect>
                    </g>
                    <g id="Group-Copy" transform="translate(26.344575, 36.175000) scale(-1, 1) translate(-26.344575, -36.175000) translate(0.844575, 24.675000)">
                        <mask id="mask-6" fill="white">
                            <use xlink:href="#path-5"></use>
                        </mask>
                        <use id="Rectangle-2" fill="url(#linearGradient-4)" xlink:href="#path-5"></use>
                        <rect id="Rectangle-3" fill="url(#linearGradient-7)" mask="url(#mask-6)" x="-5.63282325" y="0" width="27.6383861" height="27.5999995"></rect>
                    </g>
                    <g id="Group-Copy-2" transform="translate(8.058762, 50.549999)">
                        <mask id="mask-10" fill="white">
                            <use xlink:href="#path-9"></use>
                        </mask>
                        <use id="Rectangle-2" fill="url(#linearGradient-8)" xlink:href="#path-9"></use>
                        <rect id="Rectangle-3" fill="#1C3F28" mask="url(#mask-10)" x="-6.45897066" y="-2.32499995" width="27.6383861" height="27.5999995"></rect>
                    </g>
                </g>
            </g>
        </g>
    </g>
</svg>